<svg width="66" height="16" viewBox="0 0 66 16" fill="none" xmlns="http://www.w3.org/2000/svg">
<path d="M55.4676 0.715657C55.7545 0.545262 56.1849 0.383387 56.7588 0.230032C57.3496 0.0766776 57.9403 0 58.5311 0C59.375 0 60.1177 0.127796 60.7591 0.383388C61.4174 0.621939 61.8393 1.00533 62.025 1.53355C62.3288 2.4196 62.6579 3.45048 63.0124 4.6262C63.3669 5.80192 63.7213 7.02024 64.0758 8.28115C64.4302 9.52503 64.7762 10.7604 65.1138 11.9872C65.4514 13.197 65.7468 14.2705 65.9999 15.2077C65.7974 15.4462 65.4936 15.6337 65.0885 15.77C64.6834 15.9233 64.2024 16 63.6454 16C63.2403 16 62.8943 15.9659 62.6073 15.8978C62.3373 15.8296 62.1094 15.7274 61.9237 15.5911C61.7549 15.4547 61.6115 15.2758 61.4933 15.0543C61.392 14.8328 61.2992 14.5772 61.2148 14.2875L60.7591 12.524H56.1765C56.0415 13.0351 55.9064 13.5634 55.7714 14.1086C55.6364 14.6539 55.5013 15.1821 55.3663 15.6933C55.13 15.7785 54.8768 15.8466 54.6068 15.8978C54.3536 15.9659 54.0413 16 53.67 16C52.8092 16 52.1678 15.8552 51.7458 15.5655C51.3407 15.2588 51.1382 14.8413 51.1382 14.3131C51.1382 14.0745 51.1719 13.836 51.2395 13.5974C51.307 13.3589 51.3829 13.0777 51.4673 12.754C51.5855 12.2939 51.7458 11.7231 51.9484 11.0415C52.1678 10.36 52.4041 9.62726 52.6573 8.84345C52.9105 8.0426 53.1805 7.22471 53.4675 6.38978C53.7544 5.55485 54.0245 4.77103 54.2776 4.03834C54.5308 3.28861 54.7587 2.62407 54.9612 2.04473C55.1807 1.46539 55.3494 1.02237 55.4676 0.715657ZM58.5058 4.01278C58.2695 4.72844 57.9994 5.52929 57.6956 6.41534C57.4087 7.28435 57.147 8.17039 56.9107 9.07348H60.0502C59.8139 8.15336 59.5691 7.25879 59.316 6.38978C59.0796 5.50373 58.8602 4.7114 58.6577 4.01278H58.5058Z" fill="#4E5969"/>
<path d="M35.6853 2.14709C35.7697 1.90853 35.8878 1.66998 36.0398 1.43143C36.1917 1.19288 36.3773 0.979886 36.5968 0.792452C36.8331 0.58798 37.1031 0.426106 37.4069 0.306829C37.7108 0.170514 38.0483 0.102356 38.4197 0.102356C38.9091 0.102356 39.3396 0.230152 39.7109 0.485744C40.0822 0.724295 40.462 1.14176 40.8502 1.73814L42.825 4.77967L45.7366 0.434625C45.8716 0.366467 46.0573 0.30683 46.2936 0.255712C46.5468 0.187554 46.7915 0.153475 47.0278 0.153475C47.8043 0.153475 48.4119 0.340909 48.8508 0.715776C49.2896 1.09064 49.509 1.55071 49.509 2.09597C49.509 2.57307 49.3824 2.99906 49.1292 3.37392C48.8929 3.74879 48.5638 4.20033 48.1418 4.72856L45.5341 7.949L49.6609 13.9043C49.5259 14.5347 49.2305 15.0374 48.7748 15.4123C48.3359 15.7701 47.7367 15.949 46.9772 15.949C46.4877 15.949 46.0658 15.8297 45.7113 15.5912C45.3568 15.3356 44.9939 14.9096 44.6226 14.3132L42.5718 11.0417L39.3818 15.8979C39.2467 15.9149 39.1201 15.9234 39.002 15.9234C38.8838 15.9405 38.7657 15.949 38.6475 15.949C37.6854 15.949 36.9765 15.753 36.5208 15.3611C36.0651 14.9692 35.8372 14.4836 35.8372 13.9043C35.8372 13.4101 35.9385 12.9841 36.141 12.6263C36.3605 12.2515 36.6643 11.8169 37.0525 11.3228L39.7109 7.87233L35.6853 2.14709Z" fill="#4E5969"/>
<path d="M23.8941 0.715657C24.181 0.545262 24.6115 0.383387 25.1853 0.230032C25.7761 0.0766776 26.3668 0 26.9576 0C27.8015 0 28.5442 0.127796 29.1856 0.383388C29.8439 0.621939 30.2658 1.00533 30.4515 1.53355C30.7553 2.4196 31.0845 3.45048 31.4389 4.6262C31.7934 5.80192 32.1478 7.02024 32.5023 8.28115C32.8567 9.52503 33.2027 10.7604 33.5403 11.9872C33.8779 13.197 34.1733 14.2705 34.4265 15.2077C34.2239 15.4462 33.9201 15.6337 33.515 15.77C33.1099 15.9233 32.6289 16 32.0719 16C31.6668 16 31.3208 15.9659 31.0338 15.8978C30.7638 15.8296 30.5359 15.7274 30.3502 15.5911C30.1814 15.4547 30.038 15.2758 29.9198 15.0543C29.8186 14.8328 29.7257 14.5772 29.6413 14.2875L29.1856 12.524H24.603C24.468 13.0351 24.333 13.5634 24.1979 14.1086C24.0629 14.6539 23.9279 15.1821 23.7928 15.6933C23.5565 15.7785 23.3033 15.8466 23.0333 15.8978C22.7801 15.9659 22.4678 16 22.0965 16C21.2357 16 20.5943 15.8552 20.1723 15.5655C19.7672 15.2588 19.5647 14.8413 19.5647 14.3131C19.5647 14.0745 19.5985 13.836 19.666 13.5974C19.7335 13.3589 19.8094 13.0777 19.8938 12.754C20.012 12.2939 20.1723 11.7231 20.3749 11.0415C20.5943 10.36 20.8306 9.62726 21.0838 8.84345C21.337 8.0426 21.607 7.22471 21.894 6.38978C22.1809 5.55485 22.451 4.77103 22.7041 4.03834C22.9573 3.28861 23.1852 2.62407 23.3877 2.04473C23.6072 1.46539 23.776 1.02237 23.8941 0.715657ZM26.9323 4.01278C26.696 4.72844 26.4259 5.52929 26.1221 6.41534C25.8352 7.28435 25.5735 8.17039 25.3372 9.07348H28.4767C28.2404 8.15336 27.9956 7.25879 27.7425 6.38978C27.5062 5.50373 27.2867 4.7114 27.0842 4.01278H26.9323Z" fill="#4E5969"/>
<path d="M10.9374 11.9361C10.718 12.1235 10.4311 12.2769 10.0766 12.3961C9.73905 12.4984 9.3424 12.5495 8.88668 12.5495C8.27904 12.5495 7.77268 12.4728 7.36759 12.3195C6.97937 12.1661 6.72619 11.902 6.60804 11.5271C6.13544 10.0277 5.74722 8.81786 5.44341 7.89773C5.13959 6.96056 4.90328 6.14267 4.7345 5.44405H4.60791C4.55727 6.44938 4.51507 7.36951 4.48132 8.20444C4.46444 9.02233 4.44756 9.82318 4.43068 10.607C4.43068 11.3908 4.4138 12.1831 4.38004 12.984C4.36316 13.7848 4.32941 14.6709 4.27877 15.6421C4.05935 15.7273 3.77241 15.7955 3.41795 15.8466C3.0635 15.9148 2.70904 15.9488 2.35459 15.9488C1.61192 15.9488 1.02961 15.8296 0.607636 15.591C0.202545 15.3525 0 14.918 0 14.2875L0.734227 1.25236C0.869257 1.03085 1.16464 0.792297 1.62036 0.536707C2.07609 0.281116 2.71748 0.15332 3.54454 0.15332C4.43912 0.15332 5.13959 0.298155 5.64595 0.587824C6.15231 0.860455 6.52365 1.312 6.75995 1.94246C6.91186 2.3514 7.07221 2.81999 7.241 3.34821C7.42666 3.87643 7.60389 4.42169 7.77268 4.98399C7.95834 5.54629 8.13557 6.10859 8.30436 6.67089C8.47315 7.21615 8.62506 7.7103 8.76009 8.15332H8.88668C9.29177 6.72201 9.69686 5.34182 10.1019 4.01274C10.507 2.66663 10.8784 1.54203 11.2159 0.638943C11.4691 0.502628 11.7898 0.391871 12.178 0.306674C12.5831 0.204438 13.0304 0.15332 13.5199 0.15332C14.347 0.15332 15.0221 0.281116 15.5454 0.536707C16.0686 0.775258 16.3724 1.12457 16.4568 1.58463C16.5243 1.92542 16.5918 2.45364 16.6594 3.16929C16.7437 3.86791 16.8281 4.66024 16.9125 5.54629C16.9969 6.43234 17.0813 7.36951 17.1657 8.35779C17.2501 9.34608 17.3261 10.3003 17.3936 11.2204C17.478 12.1235 17.5455 12.9584 17.5961 13.7252C17.6468 14.4749 17.6805 15.0543 17.6974 15.4632C17.4105 15.6336 17.1066 15.7529 16.7859 15.8211C16.4821 15.9062 16.0855 15.9488 15.596 15.9488C14.9546 15.9488 14.4145 15.8381 13.9756 15.6166C13.5368 15.3951 13.3005 14.9606 13.2667 14.3131C13.1654 12.4558 13.0979 10.7859 13.0642 9.30348C13.0473 7.82105 13.0135 6.57718 12.9629 5.57185H12.8363C12.6675 6.23639 12.4228 7.07132 12.1021 8.07664C11.7814 9.08197 11.3932 10.3684 10.9374 11.9361Z" fill="#4E5969"/>
</svg>
